<svg width="17" height="16" viewBox="0 0 17 16" fill="none" xmlns="http://www.w3.org/2000/svg">
<path d="M9.47939 7.93346L11.8361 5.57612C11.8997 5.51463 11.9505 5.44106 11.9855 5.35973C12.0204 5.27839 12.0388 5.19091 12.0396 5.10239C12.0403 5.01387 12.0235 4.92609 11.9899 4.84415C11.9564 4.76222 11.9069 4.68779 11.8443 4.62519C11.7817 4.5626 11.7073 4.5131 11.6254 4.47958C11.5434 4.44606 11.4556 4.42919 11.3671 4.42996C11.2786 4.43073 11.1911 4.44912 11.1098 4.48406C11.0285 4.519 10.9549 4.56978 10.8934 4.63346L8.53606 6.99012L6.1794 4.63346C6.1179 4.56978 6.04433 4.519 5.963 4.48406C5.88166 4.44912 5.79418 4.43073 5.70566 4.42996C5.61714 4.42919 5.52936 4.44606 5.44743 4.47958C5.3655 4.5131 5.29106 4.5626 5.22847 4.62519C5.16587 4.68779 5.11637 4.76222 5.08285 4.84415C5.04933 4.92609 5.03246 5.01387 5.03323 5.10239C5.034 5.19091 5.05239 5.27839 5.08733 5.35973C5.12227 5.44106 5.17306 5.51463 5.23673 5.57612L7.5934 7.93279L5.23673 10.2901C5.17306 10.3516 5.12227 10.4252 5.08733 10.5065C5.05239 10.5879 5.034 10.6753 5.03323 10.7639C5.03246 10.8524 5.04933 10.9402 5.08285 11.0221C5.11637 11.104 5.16587 11.1785 5.22847 11.2411C5.29106 11.3036 5.3655 11.3532 5.44743 11.3867C5.52936 11.4202 5.61714 11.4371 5.70566 11.4363C5.79418 11.4355 5.88166 11.4171 5.963 11.3822C6.04433 11.3473 6.1179 11.2965 6.1794 11.2328L8.53606 8.87612L10.8934 11.2328C10.9549 11.2965 11.0285 11.3473 11.1098 11.3822C11.1911 11.4171 11.2786 11.4355 11.3671 11.4363C11.4556 11.4371 11.5434 11.4202 11.6254 11.3867C11.7073 11.3532 11.7817 11.3036 11.8443 11.2411C11.9069 11.1785 11.9564 11.104 11.9899 11.0221C12.0235 10.9402 12.0403 10.8524 12.0396 10.7639C12.0388 10.6753 12.0204 10.5879 11.9855 10.5065C11.9505 10.4252 11.8997 10.3516 11.8361 10.2901L9.47939 7.93279V7.93346Z" fill="#DDF3FF"/>
</svg>
