<svg width="13" height="12" viewBox="0 0 13 12" fill="none" xmlns="http://www.w3.org/2000/svg">
<path d="M7.30469 5.69995V3.19995C7.30469 3.06734 7.25201 2.94017 7.15824 2.8464C7.06447 2.75263 6.9373 2.69995 6.80469 2.69995C6.67208 2.69995 6.5449 2.75263 6.45113 2.8464C6.35737 2.94017 6.30469 3.06734 6.30469 3.19995V5.69995H3.80469C3.67208 5.69995 3.5449 5.75263 3.45113 5.8464C3.35737 5.94017 3.30469 6.06734 3.30469 6.19995C3.30469 6.33256 3.35737 6.45974 3.45113 6.5535C3.5449 6.64727 3.67208 6.69995 3.80469 6.69995H6.30469V9.19995C6.30469 9.33256 6.35737 9.45974 6.45113 9.5535C6.5449 9.64727 6.67208 9.69995 6.80469 9.69995C6.9373 9.69995 7.06447 9.64727 7.15824 9.5535C7.25201 9.45974 7.30469 9.33256 7.30469 9.19995V6.69995H9.80469C9.9373 6.69995 10.0645 6.64727 10.1582 6.5535C10.252 6.45974 10.3047 6.33256 10.3047 6.19995C10.3047 6.06734 10.252 5.94017 10.1582 5.8464C10.0645 5.75263 9.9373 5.69995 9.80469 5.69995H7.30469Z" fill="#EFD9F9"/>
</svg>
